<svg width="25" height="25" viewBox="0 2 40 40" xmlns="http://www.w3.org/2000/svg">
<path d="M19.2568 16.7019H22.7568V13.2019H19.2568M21.0068 35.9519C13.2893 35.9519 7.00684 29.6694 7.00684 21.9519C7.00684 14.2344 13.2893 7.9519 21.0068 7.9519C28.7243 7.9519 35.0068 14.2344 35.0068 21.9519C35.0068 29.6694 28.7243 35.9519 21.0068 35.9519ZM21.0068 4.4519C18.7087 4.4519 16.4331 4.90456 14.3099 5.78401C12.1867 6.66347 10.2575 7.95251 8.63247 9.57754C5.35058 12.8594 3.50684 17.3106 3.50684 21.9519C3.50684 26.5932 5.35058 31.0444 8.63247 34.3263C10.2575 35.9513 12.1867 37.2403 14.3099 38.1198C16.4331 38.9992 18.7087 39.4519 21.0068 39.4519C25.6481 39.4519 30.0993 37.6082 33.3812 34.3263C36.6631 31.0444 38.5068 26.5932 38.5068 21.9519C38.5068 19.6538 38.0542 17.3781 37.1747 15.2549C36.2953 13.1317 35.0062 11.2026 33.3812 9.57754C31.7562 7.95251 29.827 6.66347 27.7038 5.78401C25.5806 4.90456 23.305 4.4519 21.0068 4.4519ZM19.2568 30.7019H22.7568V20.2019H19.2568V30.7019Z"/>
</svg>
