<svg width="25" height="25" viewBox="0 2 40 40" xmlns="http://www.w3.org/2000/svg">
<path d="M19.4645 31.122L13.2112 24.8687C13.0201 24.6455 12.9202 24.3584 12.9315 24.0648C12.9429 23.7712 13.0646 23.4926 13.2724 23.2848C13.4802 23.0771 13.7587 22.9553 14.0523 22.944C14.3459 22.9327 14.633 23.0325 14.8562 23.2237L19.4645 27.7853L29.5445 17.7053C29.7677 17.5142 30.0548 17.4143 30.3484 17.4257C30.642 17.437 30.9206 17.5587 31.1284 17.7665C31.3361 17.9743 31.4579 18.2528 31.4692 18.5464C31.4805 18.8401 31.3807 19.1272 31.1895 19.3503L19.4645 31.122Z"/>
<path d="M38.2245 7.9519H34.4329V10.2852H37.9329V35.9519H5.26619V10.2852H8.76619V7.9519H4.97452C4.7018 7.95646 4.43265 8.0147 4.18243 8.1233C3.93222 8.23189 3.70586 8.38872 3.51626 8.58481C3.32667 8.7809 3.17756 9.01243 3.07746 9.26616C2.97736 9.51988 2.92822 9.79085 2.93286 10.0636V36.1736C2.92822 36.4463 2.97736 36.7173 3.07746 36.971C3.17756 37.2247 3.32667 37.4562 3.51626 37.6523C3.70586 37.8484 3.93222 38.0052 4.18243 38.1138C4.43265 38.2224 4.7018 38.2807 4.97452 38.2852H38.2245C38.4972 38.2807 38.7664 38.2224 39.0166 38.1138C39.2668 38.0052 39.4932 37.8484 39.6828 37.6523C39.8724 37.4562 40.0215 37.2247 40.1216 36.971C40.2217 36.7173 40.2708 36.4463 40.2662 36.1736V10.0636C40.2708 9.79085 40.2217 9.51988 40.1216 9.26616C40.0215 9.01243 39.8724 8.7809 39.6828 8.58481C39.4932 8.38872 39.2668 8.23189 39.0166 8.1233C38.7664 8.0147 38.4972 7.95646 38.2245 7.9519Z" />
<path d="M12.2662 12.6185C12.5756 12.6185 12.8724 12.4956 13.0912 12.2768C13.31 12.058 13.4329 11.7612 13.4329 11.4518V4.45182C13.4329 4.1424 13.31 3.84566 13.0912 3.62686C12.8724 3.40807 12.5756 3.28516 12.2662 3.28516C11.9568 3.28516 11.66 3.40807 11.4413 3.62686C11.2225 3.84566 11.0995 4.1424 11.0995 4.45182V11.4518C11.0995 11.7612 11.2225 12.058 11.4413 12.2768C11.66 12.4956 11.9568 12.6185 12.2662 12.6185Z" />
<path d="M30.9329 12.6185C31.2423 12.6185 31.5391 12.4956 31.7579 12.2768C31.9767 12.058 32.0996 11.7612 32.0996 11.4518V4.45182C32.0996 4.1424 31.9767 3.84566 31.7579 3.62686C31.5391 3.40807 31.2423 3.28516 30.9329 3.28516C30.6235 3.28516 30.3267 3.40807 30.1079 3.62686C29.8892 3.84566 29.7662 4.1424 29.7662 4.45182V11.4518C29.7662 11.7612 29.8892 12.058 30.1079 12.2768C30.3267 12.4956 30.6235 12.6185 30.9329 12.6185Z" />
<path d="M15.7662 7.9519H27.4329V10.2852H15.7662V7.9519Z"/>
</svg>
