<svg width="25" height="25" viewBox="0 0 34 34" fill="none" xmlns="http://www.w3.org/2000/svg">
<path d="M17.0414 0.665405C7.83309 0.665405 0.374759 8.12374 0.374759 17.3321C0.372752 20.8307 1.47242 24.2411 3.51778 27.0795C5.56313 29.9179 8.45031 32.0402 11.7698 33.1454C12.6031 33.2904 12.9164 32.7904 12.9164 32.3521C12.9164 31.9571 12.8948 30.6454 12.8948 29.2487C8.70809 30.0204 7.62476 28.2287 7.29143 27.2904C7.10309 26.8104 6.29143 25.3321 5.58309 24.9354C4.99976 24.6237 4.16643 23.8521 5.56143 23.8321C6.87476 23.8104 7.81143 25.0404 8.12476 25.5404C9.62476 28.0604 12.0198 27.3521 12.9781 26.9154C13.1248 25.8321 13.5614 25.1037 14.0414 24.6871C10.3331 24.2704 6.45809 22.8321 6.45809 16.4571C6.45809 14.6437 7.10309 13.1454 8.16643 11.9771C7.99976 11.5604 7.41643 9.85207 8.33309 7.56041C8.33309 7.56041 9.72809 7.12374 12.9164 9.27041C14.2732 8.89384 15.675 8.70431 17.0831 8.70707C18.4998 8.70707 19.9164 8.89374 21.2498 9.26874C24.4381 7.10207 25.8331 7.56207 25.8331 7.56207C26.7498 9.85374 26.1664 11.5621 25.9998 11.9787C27.0614 13.1454 27.7081 14.6237 27.7081 16.4571C27.7081 22.8537 23.8131 24.2704 20.1031 24.6871C20.7081 25.2071 21.2298 26.2071 21.2298 27.7704C21.2298 29.9987 21.2081 31.7904 21.2081 32.3537C21.2081 32.7904 21.5214 33.3104 22.3548 33.1437C25.6628 32.0265 28.5373 29.9 30.5736 27.0636C32.6099 24.2272 33.7056 20.8237 33.7064 17.3321C33.7064 8.12374 26.2481 0.665405 17.0398 0.665405H17.0414Z" fill="#3E7C97"/>
</svg>
