<svg width="25" height="25" viewBox="0 0 40 40" fill="none" xmlns="http://www.w3.org/2000/svg">
<path d="M35.4646 18.452C35.4646 17.9879 35.2803 17.5428 34.9521 17.2146C34.6239 16.8864 34.1788 16.702 33.7146 16.702C33.2505 16.702 32.8054 16.8864 32.4772 17.2146C32.149 17.5428 31.9646 17.9879 31.9646 18.452H35.4646ZM10.9646 18.452C10.9646 17.9879 10.7802 17.5428 10.4521 17.2146C10.1239 16.8864 9.67875 16.702 9.21462 16.702C8.75049 16.702 8.30537 16.8864 7.97718 17.2146C7.64899 17.5428 7.46462 17.9879 7.46462 18.452H10.9646ZM35.9774 23.1893C36.3074 23.508 36.7495 23.6844 37.2083 23.6804C37.6672 23.6765 38.1061 23.4924 38.4306 23.1679C38.755 22.8435 38.9391 22.4046 38.9431 21.9457C38.947 21.4869 38.7707 21.0448 38.4519 20.7148L35.9774 23.1893ZM21.4646 6.20202L22.7019 4.96477C22.3737 4.63669 21.9287 4.45239 21.4646 4.45239C21.0006 4.45239 20.5555 4.63669 20.2274 4.96477L21.4646 6.20202ZM4.47737 20.7148C4.31023 20.8762 4.17691 21.0693 4.08519 21.2828C3.99348 21.4963 3.9452 21.726 3.94318 21.9583C3.94116 22.1907 3.98544 22.4211 4.07343 22.6362C4.16142 22.8513 4.29137 23.0466 4.45568 23.211C4.61999 23.3753 4.81538 23.5052 5.03045 23.5932C5.24552 23.6812 5.47596 23.7255 5.70832 23.7235C5.94069 23.7214 6.17032 23.6732 6.38383 23.5814C6.59733 23.4897 6.79044 23.3564 6.95187 23.1893L4.47737 20.7148ZM12.7146 39.452H30.2146V35.952H12.7146V39.452ZM35.4646 34.202V18.452H31.9646V34.202H35.4646ZM10.9646 34.202V18.452H7.46462V34.202H10.9646ZM38.4519 20.7148L22.7019 4.96477L20.2274 7.43927L35.9774 23.1893L38.4519 20.7148ZM20.2274 4.96477L4.47737 20.7148L6.95187 23.1893L22.7019 7.43927L20.2274 4.96477ZM30.2146 39.452C31.607 39.452 32.9424 38.8989 33.9269 37.9143C34.9115 36.9298 35.4646 35.5944 35.4646 34.202H31.9646C31.9646 34.6661 31.7803 35.1113 31.4521 35.4395C31.1239 35.7676 30.6788 35.952 30.2146 35.952V39.452ZM12.7146 35.952C12.2505 35.952 11.8054 35.7676 11.4772 35.4395C11.149 35.1113 10.9646 34.6661 10.9646 34.202H7.46462C7.46462 35.5944 8.01774 36.9298 9.00231 37.9143C9.98688 38.8989 11.3222 39.452 12.7146 39.452V35.952Z" fill="#D9D9D9" fill-opacity="0.7"/>
</svg>
