<?xml version="1.0" encoding="UTF-8" standalone="no"?>
<!-- Created with Inkscape (http://www.inkscape.org/) -->

<svg
   width="124.134mm"
   height="134.81328mm"
   viewBox="0 0 118.22285 160.492"
   version="1.1"
   id="svg8"
   inkscape:export-filename="/home/xypnox/Pictures/Design/Koss-neon2.png"
   inkscape:export-xdpi="180"
   inkscape:export-ydpi="180"
   inkscape:version="1.2.2 (b0a8486541, 2022-12-01)"
   sodipodi:docname="koss-neon.svg"
   xmlns:inkscape="http://www.inkscape.org/namespaces/inkscape"
   xmlns:sodipodi="http://sodipodi.sourceforge.net/DTD/sodipodi-0.dtd"
   xmlns:xlink="http://www.w3.org/1999/xlink"
   xmlns="http://www.w3.org/2000/svg"
   xmlns:svg="http://www.w3.org/2000/svg"
   xmlns:rdf="http://www.w3.org/1999/02/22-rdf-syntax-ns#"
   xmlns:cc="http://creativecommons.org/ns#"
   xmlns:dc="http://purl.org/dc/elements/1.1/">
  <defs
     id="defs2">
    <linearGradient
       inkscape:collect="always"
       id="linearGradient1045">
      <stop
         style="stop-color:#b64bff;stop-opacity:1"
         offset="0"
         id="stop1041" />
      <stop
         id="stop1049"
         offset="0.24285854"
         style="stop-color:#4e91f5;stop-opacity:1;" />
      <stop
         style="stop-color:#5affd6;stop-opacity:1"
         offset="1"
         id="stop1043" />
    </linearGradient>
    <linearGradient
       inkscape:collect="always"
       xlink:href="#linearGradient1045"
       id="linearGradient1047"
       x1="513.15967"
       y1="822.42426"
       x2="334.5499"
       y2="348.13852"
       gradientUnits="userSpaceOnUse"
       gradientTransform="matrix(0.04299127,0,0,0.04299127,-0.49046663,-6.9026801)" />
  </defs>
  <sodipodi:namedview
     id="base"
     pagecolor="#ffffff"
     bordercolor="#666666"
     borderopacity="1.0"
     inkscape:pageopacity="0.0"
     inkscape:pageshadow="2"
     inkscape:zoom="0.98994949"
     inkscape:cx="299.51023"
     inkscape:cy="319.2082"
     inkscape:document-units="mm"
     inkscape:current-layer="g1457"
     showgrid="false"
     showguides="true"
     inkscape:guide-bbox="true"
     inkscape:snap-bbox="true"
     inkscape:bbox-nodes="true"
     inkscape:bbox-paths="true"
     inkscape:snap-bbox-edge-midpoints="true"
     inkscape:snap-bbox-midpoints="true"
     inkscape:object-paths="true"
     inkscape:snap-intersection-paths="true"
     inkscape:snap-smooth-nodes="true"
     inkscape:snap-midpoints="true"
     inkscape:snap-object-midpoints="true"
     inkscape:snap-center="true"
     inkscape:snap-text-baseline="true"
     inkscape:snap-nodes="false"
     inkscape:snap-others="false"
     inkscape:snap-grids="true"
     inkscape:snap-page="true"
     inkscape:window-width="1874"
     inkscape:window-height="1034"
     inkscape:window-x="0"
     inkscape:window-y="0"
     inkscape:window-maximized="1"
     inkscape:showpageshadow="2"
     inkscape:pagecheckerboard="0"
     inkscape:deskcolor="#d1d1d1" />
  <metadata
     id="metadata5">
    <rdf:RDF>
      <cc:Work
         rdf:about="">
        <dc:format>image/svg+xml</dc:format>
        <dc:type
           rdf:resource="http://purl.org/dc/dcmitype/StillImage" />
        <dc:title />
      </cc:Work>
    </rdf:RDF>
  </metadata>
  <g
     inkscape:label="Layer 1"
     inkscape:groupmode="layer"
     id="layer1"
     transform="translate(-58.719901,-72.34183)">
    <g
       inkscape:label="Layer 1"
       id="layer1-6"
       transform="matrix(6.1543496,0,0,6.1543496,16.775793,34.593901)"
       style="fill:none;stroke:#000000;stroke-opacity:1">
      <g
         transform="translate(-0.57452389,1.281631)"
         id="g1457"
         style="fill:none;stroke:#000000;stroke-width:0.257948;stroke-miterlimit:4;stroke-dasharray:none;stroke-opacity:1">
        <path
           style="color:#000000;font-style:normal;font-variant:normal;font-weight:normal;font-stretch:normal;font-size:medium;line-height:normal;font-family:sans-serif;font-variant-ligatures:normal;font-variant-position:normal;font-variant-caps:normal;font-variant-numeric:normal;font-variant-alternates:normal;font-feature-settings:normal;text-indent:0;text-align:start;text-decoration:none;text-decoration-line:none;text-decoration-style:solid;text-decoration-color:#000000;letter-spacing:normal;word-spacing:normal;text-transform:none;writing-mode:lr-tb;direction:ltr;text-orientation:mixed;dominant-baseline:auto;baseline-shift:baseline;text-anchor:start;white-space:normal;shape-padding:0;clip-rule:nonzero;display:inline;overflow:visible;visibility:visible;opacity:1;isolation:auto;mix-blend-mode:normal;color-interpolation:sRGB;color-interpolation-filters:linearRGB;solid-color:#000000;solid-opacity:1;vector-effect:none;fill:url(#linearGradient1047);fill-opacity:1;fill-rule:nonzero;stroke:none;stroke-width:0.257948;stroke-linecap:butt;stroke-linejoin:miter;stroke-miterlimit:35.4;stroke-dasharray:none;stroke-dashoffset:0;stroke-opacity:1;color-rendering:auto;image-rendering:auto;shape-rendering:auto;text-rendering:auto;enable-background:accumulate"
           d="M 15.572567,4.8519057 10.432003,6.5881821 9.5596661,7.916881 9.5590771,7.9160427 8.8753315,8.9580771 V 6.2093228 H 5.4612197 V 16.312775 h 3.4121802 l 0.00193,-0.126959 c 0.013095,-1.137154 0.00564,-2.222359 0.0016,-3.277244 l 2.0666881,2.994443 4.619043,0.936823 -3.80498,-5.655703 z m 6.238688,0.3550975 c -3.272865,0 -5.929689,2.6486522 -5.929689,5.9121398 0,3.263801 2.672269,5.771494 5.94136,5.771494 1.822385,0 3.340876,-0.809435 4.328768,-2.088687 a 3.9096959,3.8749996 0 0 0 2.848927,-3.725966 3.9096959,3.8749996 0 0 0 -2.77999,-3.7061502 C 25.231971,6.0450402 23.679123,5.2070037 21.811255,5.2070032 Z M 14.988574,5.3206111 11.599401,10.948773 9.7161814,8.1495545 10.598006,6.8049857 Z m 6.822681,0.1442559 c 1.670448,0 3.070099,0.6898345 4.013638,1.8079846 a 3.9096959,3.8749996 0 0 0 -0.734463,-0.071876 3.9096959,3.8749996 0 0 0 -2.972863,1.372866 c -0.0058,-0.00365 -0.01152,-0.00772 -0.0173,-0.011335 -0.44753,-0.2801427 -0.975831,-0.4414163 -1.540968,-0.4414163 -1.614958,0 -2.925758,1.3224463 -2.925758,2.9491847 0,1.626738 1.3108,2.949268 2.925758,2.949268 0.559595,0 1.082659,-0.15851 1.527365,-0.433607 0.0071,-0.0044 0.01409,-0.0093 0.02116,-0.01377 a 3.9096959,3.8749996 0 0 0 2.982603,1.378827 3.9096959,3.8749996 0 0 0 0.665022,-0.06046 c -0.939103,1.077302 -2.306041,1.742238 -3.932526,1.742238 -3.13762,0 -5.68358,-2.390325 -5.68358,-5.51363 0,-3.123623 2.538063,-5.6542762 5.671909,-5.6542762 z M 5.7190848,6.467101 h 2.898468 v 2.8838578 l -1.0702475,1.6311492 1.0705833,1.551213 c 0.00297,1.128904 0.011941,2.303342 -4.299e-4,3.521673 H 5.7190848 Z M 20.559302,8.3788691 c 0.515944,0 0.996232,0.1469506 1.404269,0.4023716 0.421997,0.2641581 0.834657,0.6434125 1.121048,1.0884684 a 2.7968747,2.8203122 0 0 1 0.271466,1.2003969 2.7968747,2.8203122 0 0 1 -0.271466,1.201572 c -0.288632,0.448271 -0.705712,0.829445 -1.132719,1.093591 -0.405451,0.250812 -0.881712,0.396409 -1.392598,0.396409 -1.474385,0 -2.667978,-1.202912 -2.667978,-2.691404 0,-1.4884916 1.193593,-2.6914049 2.667978,-2.6914049 z m -10.174237,8.6801219 -5.2324237,3.08009 0.5215211,4.244128 3.8324365,1.857609 1.4486881,-4.785046 5.451327,-3.021816 z m 11.417961,0.167599 -5.232424,3.08009 0.521521,4.244128 3.832437,1.857693 1.448688,-4.78513 5.451327,-3.021816 z m -11.37497,0.105799 5.26366,1.205099 -9.8085589,5.433609 -0.455103,-3.695317 z m 11.417961,0.167599 5.26366,1.205099 -9.808559,5.433609 -0.455103,-3.695318 z m -10.024775,4.172336 -1.118613,4.607287 -5.71406,3.105532 c 2.0627615,0.457802 4.1250932,0.917814 6.187552,1.37698 l 5.095725,-2.998054 -0.505903,-4.236319 z m 11.417961,0.167599 -1.118613,4.607287 -5.713976,3.105531 c 2.062761,0.457803 4.125009,0.917815 6.187468,1.37698 l 5.095725,-2.998053 -0.505903,-4.236319 z m -7.684186,2.095992 0.439485,3.691456 -4.861372,2.86127 -5.4140452,-1.20703 z m 11.417961,0.167599 0.439485,3.691455 -4.861373,2.861271 -5.414044,-1.207031 z"
           id="path1545" />
      </g>
    </g>
  </g>
</svg>
