<svg width="25" height="25" viewBox="0 0 33 31" fill="none" xmlns="http://www.w3.org/2000/svg">
<path d="M7.60649 3.66532C7.60605 4.54938 7.25443 5.39705 6.629 6.02186C6.00356 6.64667 5.15554 6.99743 4.27149 6.99699C3.38743 6.99655 2.53976 6.64493 1.91495 6.0195C1.29014 5.39407 0.939378 4.54604 0.93982 3.66199C0.940262 2.77793 1.29188 1.93026 1.91731 1.30545C2.54274 0.680646 3.39076 0.329881 4.27482 0.330323C5.15887 0.330765 6.00655 0.682378 6.63135 1.30781C7.25616 1.93325 7.60693 2.78127 7.60649 3.66532ZM7.70649 9.46532H1.03982V30.332H7.70649V9.46532ZM18.2398 9.46532H11.6065V30.332H18.1732V19.382C18.1732 13.282 26.1232 12.7153 26.1232 19.382V30.332H32.7065V17.1153C32.7065 6.83199 20.9398 7.21532 18.1732 12.2653L18.2398 9.46532Z" fill="#3E7C97"/>
</svg>
