<svg width="25" height="25" viewBox="0 0 40 40" fill="none" xmlns="http://www.w3.org/2000/svg">
<path d="M16.3892 11.4518C16.3892 10.0608 16.9417 8.72676 17.9253 7.74318C18.9089 6.7596 20.2429 6.20703 21.6339 6.20703C23.0249 6.20703 24.3589 6.7596 25.3425 7.74318C26.3261 8.72676 26.8787 10.0608 26.8787 11.4518C26.8787 12.8428 26.3261 14.1768 25.3425 15.1604C24.3589 16.144 23.0249 16.6965 21.6339 16.6965C20.2429 16.6965 18.9089 16.144 17.9253 15.1604C16.9417 14.1768 16.3892 12.8428 16.3892 11.4518ZM21.6339 8.83203C21.2899 8.83203 20.9492 8.89979 20.6314 9.03145C20.3135 9.1631 20.0247 9.35607 19.7815 9.59934C19.5382 9.8426 19.3452 10.1314 19.2136 10.4492C19.0819 10.7671 19.0142 11.1077 19.0142 11.4518C19.0142 11.7958 19.0819 12.1365 19.2136 12.4543C19.3452 12.7722 19.5382 13.061 19.7815 13.3042C20.0247 13.5475 20.3135 13.7405 20.6314 13.8721C20.9492 14.0038 21.2899 14.0715 21.6339 14.0715C22.3287 14.0715 22.9951 13.7955 23.4864 13.3042C23.9777 12.8129 24.2537 12.1466 24.2537 11.4518C24.2537 10.757 23.9777 10.0906 23.4864 9.59934C22.9951 9.10804 22.3287 8.83203 21.6339 8.83203ZM29.5089 12.7643C29.5089 12.2472 29.6108 11.7352 29.8086 11.2575C30.0065 10.7797 30.2965 10.3457 30.6622 9.98005C31.0278 9.61442 31.4619 9.32438 31.9396 9.1265C32.4173 8.92863 32.9293 8.82678 33.4464 8.82678C33.9635 8.82678 34.4755 8.92863 34.9532 9.1265C35.4309 9.32438 35.865 9.61442 36.2306 9.98005C36.5963 10.3457 36.8863 10.7797 37.0842 11.2575C37.2821 11.7352 37.3839 12.2472 37.3839 12.7643C37.3839 13.8086 36.9691 14.8101 36.2306 15.5485C35.4922 16.2869 34.4907 16.7018 33.4464 16.7018C32.4021 16.7018 31.4006 16.2869 30.6622 15.5485C29.9238 14.8101 29.5089 13.8086 29.5089 12.7643ZM33.4464 11.4518C33.0983 11.4518 32.7645 11.5901 32.5183 11.8362C32.2722 12.0823 32.1339 12.4162 32.1339 12.7643C32.1339 13.1124 32.2722 13.4462 32.5183 13.6924C32.7645 13.9385 33.0983 14.0768 33.4464 14.0768C33.7945 14.0768 34.1283 13.9385 34.3745 13.6924C34.6206 13.4462 34.7589 13.1124 34.7589 12.7643C34.7589 12.4162 34.6206 12.0823 34.3745 11.8362C34.1283 11.5901 33.7945 11.4518 33.4464 11.4518ZM9.82141 8.82678C8.77712 8.82678 7.7756 9.24162 7.03718 9.98005C6.29875 10.7185 5.88391 11.72 5.88391 12.7643C5.88391 13.8086 6.29875 14.8101 7.03718 15.5485C7.7756 16.2869 8.77712 16.7018 9.82141 16.7018C10.8657 16.7018 11.8672 16.2869 12.6056 15.5485C13.3441 14.8101 13.7589 13.8086 13.7589 12.7643C13.7589 11.72 13.3441 10.7185 12.6056 9.98005C11.8672 9.24162 10.8657 8.82678 9.82141 8.82678ZM8.50891 12.7643C8.50891 12.4162 8.64719 12.0823 8.89333 11.8362C9.13948 11.5901 9.47332 11.4518 9.82141 11.4518C10.1695 11.4518 10.5033 11.5901 10.7495 11.8362C10.9956 12.0823 11.1339 12.4162 11.1339 12.7643C11.1339 13.1124 10.9956 13.4462 10.7495 13.6924C10.5033 13.9385 10.1695 14.0768 9.82141 14.0768C9.47332 14.0768 9.13948 13.9385 8.89333 13.6924C8.64719 13.4462 8.50891 13.1124 8.50891 12.7643ZM11.8374 19.3268C11.3754 20.1244 11.1327 21.03 11.1339 21.9518H5.88391V28.5143C5.8837 29.1672 6.04586 29.81 6.3558 30.3846C6.66574 30.9593 7.11372 31.4479 7.65943 31.8064C8.20514 32.1649 8.83143 32.3821 9.48193 32.4384C10.1324 32.4947 10.7867 32.3883 11.3859 32.1289C11.5802 32.9978 11.8847 33.8273 12.2784 34.6017C11.2821 35.0039 10.2023 35.1554 9.13381 35.0428C8.0653 34.9303 7.04077 34.5571 6.1502 33.956C5.25962 33.3549 4.53025 32.5444 4.02613 31.5956C3.522 30.6468 3.25855 29.5887 3.25891 28.5143V21.9518C3.25891 21.2556 3.53547 20.5879 4.02776 20.0956C4.52004 19.6033 5.18772 19.3268 5.88391 19.3268H11.8374ZM30.9894 34.6017C31.9857 35.0039 33.0655 35.1554 34.134 35.0428C35.2025 34.9303 36.2271 34.5571 37.1176 33.956C38.0082 33.3549 38.7376 32.5444 39.2417 31.5956C39.7458 30.6468 40.0093 29.5887 40.0089 28.5143V21.9518C40.0089 21.2556 39.7323 20.5879 39.2401 20.0956C38.7478 19.6033 38.0801 19.3268 37.3839 19.3268H31.4304C31.8767 20.0985 32.1339 20.9937 32.1339 21.9518H37.3839V28.5143C37.3841 29.1672 37.222 29.81 36.912 30.3846C36.6021 30.9593 36.1541 31.4479 35.6084 31.8064C35.0627 32.1649 34.4364 32.3821 33.7859 32.4384C33.1354 32.4947 32.4811 32.3883 31.8819 32.1289C31.685 32.9978 31.3832 33.8273 30.9894 34.6017ZM16.3839 19.3242C15.6877 19.3242 15.02 19.6007 14.5278 20.093C14.0355 20.5853 13.7589 21.253 13.7589 21.9492V29.8268C13.7589 31.9154 14.5886 33.9184 16.0654 35.3952C17.5423 36.8721 19.5453 37.7018 21.6339 37.7018C23.7225 37.7018 25.7255 36.8721 27.2024 35.3952C28.6792 33.9184 29.5089 31.9154 29.5089 29.8268V21.9518C29.5089 21.2556 29.2323 20.5879 28.7401 20.0956C28.2478 19.6033 27.5801 19.3268 26.8839 19.3268H16.3839V19.3242ZM16.3839 21.9492H26.8839V29.8268C26.8839 31.2192 26.3308 32.5545 25.3462 33.5391C24.3617 34.5237 23.0263 35.0768 21.6339 35.0768C20.2415 35.0768 18.9062 34.5237 17.9216 33.5391C16.937 32.5545 16.3839 31.2192 16.3839 29.8268V21.9518V21.9492Z" fill="#D9D9D9" fill-opacity="0.7"/>
</svg>
