<svg width="25" height="25" viewBox="0 0 35 28" xmlns="http://www.w3.org/2000/svg">
<path d="M34.0598 3.7587C32.7879 4.32136 31.4391 4.69099 30.0581 4.85536C31.5132 3.98393 32.6019 2.61326 33.1214 0.998698C31.7548 1.81203 30.2564 2.38203 28.6964 2.69036C27.6474 1.568 26.257 0.823636 24.7414 0.573006C23.2257 0.322375 21.6697 0.579516 20.3152 1.30445C18.9607 2.02939 17.8837 3.1815 17.2516 4.58169C16.6195 5.98187 16.4677 7.55166 16.8198 9.04703C14.048 8.90835 11.3364 8.18824 8.86099 6.93347C6.38562 5.6787 4.20182 3.91731 2.45143 1.7637C1.83191 2.82778 1.50635 4.03741 1.50809 5.2687C1.50809 7.68536 2.73976 9.82036 4.60809 11.0704C3.50145 11.0355 2.41917 10.7366 1.45143 10.1987V10.2837C1.45138 11.8935 2.00815 13.4537 3.02731 14.6998C4.04647 15.9459 5.46528 16.8011 7.04309 17.1204C6.01583 17.399 4.93858 17.4401 3.89309 17.2404C4.33796 18.626 5.20512 19.8378 6.37309 20.706C7.54106 21.5742 8.95135 22.0554 10.4064 22.082C8.96035 23.2178 7.30457 24.0573 5.53377 24.5526C3.76298 25.048 1.91191 25.1893 0.0864258 24.9687C3.27263 27.0177 6.9816 28.1055 10.7698 28.102C23.5931 28.102 30.6031 17.4804 30.6031 8.2687C30.6031 7.9687 30.5964 7.66536 30.5831 7.36703C31.9471 6.38096 33.1244 5.15797 34.0598 3.7587Z" />
</svg>
